<?xml version="1.0" encoding="UTF-8" standalone="no"?>
<svg width="157px" height="19px" viewBox="0 0 157 19" version="1.1" xmlns="http://www.w3.org/2000/svg" xmlns:xlink="http://www.w3.org/1999/xlink">
    <!-- Generator: Sketch 39.1 (31720) - http://www.bohemiancoding.com/sketch -->
    <title>momentum</title>
    <desc>Created with Sketch.</desc>
    <defs></defs>
    <g id="Page-1" stroke="none" stroke-width="1" fill="none" fill-rule="evenodd">
        <g id="31.-work---hungry-panda" transform="translate(-84.000000, -54.000000)" fill="#333333">
            <g id="Group" transform="translate(84.000000, 54.000000)">
                <g id="momentum">
                    <polygon id="Fill-1" points="56.093231 0.378314213 52.3100888 6.58260355 48.5269467 0.378314213 42.3736624 0.378314213 48.1491904 9.29304518 48.1491904 9.28188782 52.2096726 15.5610909 52.3100888 15.5610909 56.371368 9.28188782 56.371368 18.0340401 62.2473122 18.0340401 62.2473122 0.378314213"></polygon>
                    <polygon id="Fill-3" points="150.549053 0.378314213 146.765114 6.58260355 142.982769 0.378314213 136.828688 0.378314213 142.604216 9.29304518 142.604216 9.28188782 146.664698 15.5610909 146.765114 15.5610909 150.826393 9.28188782 150.826393 18.0340401 156.702338 18.0340401 156.702338 0.378314213"></polygon>
                    <path d="M34.8060234,9.2559868 L34.8060234,9.20657563 C34.8060234,7.11297665 33.3683178,5.22100711 31.0993888,5.22100711 C28.8535716,5.22100711 27.4421655,7.08667716 27.4421655,9.15557056 L27.4421655,9.20657563 C27.4421655,11.2985807 28.8790741,13.1905503 31.1488,13.1905503 C33.3938203,13.1905503 34.8060234,11.3248802 34.8060234,9.2559868 M21.4897137,9.2559868 L21.4897137,9.20657563 C21.4897137,4.08614416 25.7016173,0.000159390863 31.1488,0.000159390863 C36.5967797,0.000159390863 40.7584751,4.03513909 40.7584751,9.15557056 L40.7584751,9.20657563 C40.7584751,14.3254132 36.5465716,18.411398 31.0993888,18.411398 C25.6514091,18.411398 21.4897137,14.3764183 21.4897137,9.2559868" id="Fill-5"></path>
                    <polygon id="Fill-7" points="64.2653599 0.378234518 79.3230147 0.378234518 79.3230147 5.22052893 70.0663904 5.22052893 70.0663904 7.01128528 78.6926239 7.01128528 78.6926239 11.2741939 70.0663904 11.2741939 70.0663904 13.190869 79.4489335 13.190869 79.4489335 18.0331635 64.2653599 18.0331635"></polygon>
                    <polygon id="Fill-9" points="81.0379807 0.378234518 86.5616711 0.378234518 92.8416711 8.17165076 92.8416711 0.378234518 98.6929096 0.378234518 98.6929096 18.0331635 93.4465594 18.0331635 86.8892193 9.8874934 86.8892193 18.0331635 81.0379807 18.0331635"></polygon>
                    <polygon id="Fill-11" points="105.226022 5.37242843 100.02988 5.37242843 100.02988 0.377915736 116.323611 0.377915736 116.323611 5.37242843 111.127469 5.37242843 111.127469 18.0336416 105.226022 18.0336416"></polygon>
                    <path d="M117.509479,10.113669 L117.509479,0.378075127 L123.511342,0.378075127 L123.511342,10.0379584 C123.511342,12.2319736 124.647002,13.1652071 126.235332,13.1652071 C127.824459,13.1652071 128.959322,12.3084812 128.959322,10.1638772 L128.959322,0.378075127 L134.961982,0.378075127 L134.961982,9.98775025 C134.961982,16.0151157 131.45618,18.3860548 126.185921,18.3860548 C120.914068,18.3860548 117.509479,15.9649076 117.509479,10.113669" id="Fill-13"></path>
                    <polygon id="Fill-15" points="13.7202061 0.378234518 9.93706396 6.58252386 6.15392183 0.378234518 -0.000159390864 0.378234518 5.77536853 9.29296548 5.77536853 9.28180812 9.83664772 15.5618081 9.93706396 15.5618081 13.9983431 9.28180812 13.9983431 18.0331635 19.8742873 18.0331635 19.8742873 0.378234518"></polygon>
                </g>
            </g>
        </g>
    </g>
</svg>